/* XPM */
static char * icon_xpm[] = {
"60 67 185 2",
"  	c None",
". 	c #FFFFFF",
"+ 	c #FDFDFD",
"@ 	c #F9F9F9",
"# 	c #D3D3D3",
"$ 	c #767676",
"% 	c #777777",
"& 	c #D9D9D9",
"* 	c #B2B2B2",
"= 	c #111111",
"- 	c #131313",
"; 	c #BDBDBD",
"> 	c #E2E2E2",
", 	c #858585",
"' 	c #0C0C0C",
") 	c #121212",
"! 	c #FEFEFE",
"~ 	c #939393",
"{ 	c #0F0F0F",
"] 	c #010101",
"^ 	c #F5F5F5",
"/ 	c #898989",
"( 	c #7C7C7C",
"_ 	c #F6F6F6",
": 	c #585858",
"< 	c #AFAFAF",
"[ 	c #101010",
"} 	c #B8B8B8",
"| 	c #747474",
"1 	c #A6A6A6",
"2 	c #B0B0B0",
"3 	c #E3E3E3",
"4 	c #4A4A4A",
"5 	c #B1B1B1",
"6 	c #FAFAFA",
"7 	c #D2D2D2",
"8 	c #4F4F4F",
"9 	c #D6D6D6",
"0 	c #5C5C5C",
"a 	c #A9A9A9",
"b 	c #EDEDED",
"c 	c #CBCBCB",
"d 	c #383838",
"e 	c #C6C6C6",
"f 	c #878787",
"g 	c #8B8B8B",
"h 	c #E1E1E1",
"i 	c #A1A1A1",
"j 	c #404040",
"k 	c #E8E8E8",
"l 	c #959595",
"m 	c #5E5E5E",
"n 	c #EAEAEA",
"o 	c #FCFCFC",
"p 	c #8E8E8E",
"q 	c #6B6B6B",
"r 	c #DADADA",
"s 	c #FBFBFB",
"t 	c #606060",
"u 	c #F2F2F2",
"v 	c #AEAEAE",
"w 	c #B9B9B9",
"x 	c #F7F7F7",
"y 	c #999999",
"z 	c #353535",
"A 	c #2B2B2B",
"B 	c #6C6C6C",
"C 	c #6F6F6F",
"D 	c #4D4D4D",
"E 	c #070707",
"F 	c #080808",
"G 	c #525252",
"H 	c #ACACAC",
"I 	c #949494",
"J 	c #666666",
"K 	c #676767",
"L 	c #474747",
"M 	c #4C4C4C",
"N 	c #F8F8F8",
"O 	c #ADADAD",
"P 	c #BBBBBB",
"Q 	c #A8A8A8",
"R 	c #7B7B7B",
"S 	c #555555",
"T 	c #090909",
"U 	c #5B5B5B",
"V 	c #919191",
"W 	c #575757",
"X 	c #565656",
"Y 	c #9E9E9E",
"Z 	c #F4F4F4",
"` 	c #F0F0F0",
" .	c #BEBEBE",
"..	c #B7B7B7",
"+.	c #C3C3C3",
"@.	c #282828",
"#.	c #303030",
"$.	c #393939",
"%.	c #2C2C2C",
"&.	c #D7D7D7",
"*.	c #EEEEEE",
"=.	c #ABABAB",
"-.	c #2D2D2D",
";.	c #9B9B9B",
">.	c #232323",
",.	c #262626",
"'.	c #2E2E2E",
").	c #A4A4A4",
"!.	c #9F9F9F",
"~.	c #C5C5C5",
"{.	c #EBEBEB",
"].	c #1C1C1C",
"^.	c #BABABA",
"/.	c #ECECEC",
"(.	c #292929",
"_.	c #414141",
":.	c #434343",
"<.	c #000000",
"[.	c #A2A2A2",
"}.	c #272727",
"|.	c #CACACA",
"1.	c #202020",
"2.	c #C8C8C8",
"3.	c #444444",
"4.	c #7D7D7D",
"5.	c #737373",
"6.	c #969696",
"7.	c #DBDBDB",
"8.	c #8C8C8C",
"9.	c #DFDFDF",
"0.	c #EFEFEF",
"a.	c #020202",
"b.	c #1F1F1F",
"c.	c #979797",
"d.	c #DDDDDD",
"e.	c #F1F1F1",
"f.	c #CFCFCF",
"g.	c #CCCCCC",
"h.	c #7E7E7E",
"i.	c #060606",
"j.	c #191919",
"k.	c #D5D5D5",
"l.	c #D8D8D8",
"m.	c #515151",
"n.	c #373737",
"o.	c #343434",
"p.	c #7A7A7A",
"q.	c #333333",
"r.	c #222222",
"s.	c #151515",
"t.	c #040404",
"u.	c #1B1B1B",
"v.	c #E4E4E4",
"w.	c #2F2F2F",
"x.	c #141414",
"y.	c #757575",
"z.	c #BCBCBC",
"A.	c #050505",
"B.	c #E0E0E0",
"C.	c #C1C1C1",
"D.	c #3A3A3A",
"E.	c #030303",
"F.	c #181818",
"G.	c #686868",
"H.	c #797979",
"I.	c #F3F3F3",
"J.	c #424242",
"K.	c #3E3E3E",
"L.	c #6D6D6D",
"M.	c #656565",
"N.	c #E6E6E6",
"O.	c #535353",
"P.	c #646464",
"Q.	c #D4D4D4",
"R.	c #848484",
"S.	c #4B4B4B",
"T.	c #C2C2C2",
"U.	c #454545",
"V.	c #C7C7C7",
"W.	c #363636",
"X.	c #E7E7E7",
"Y.	c #E5E5E5",
"Z.	c #636363",
"`.	c #595959",
" +	c #9A9A9A",
". . . . . . . . . . . . . . . . . . . . . . . . . . . . . . . . . . . . . . . . . . . . . . . . . . . . . . . . . . . . ",
". . . . . . . . . . . . . . . . . . . . . . . . . . . . . . . . . . . . . . . + @ @ + . . . . . . . . . . . . . . . . . ",
". . . . . . . . . . . . . . . . . . . . . . . . . . . . . . . . . . . . . . . # $ % & . . . . . . . . . . . . . . . . . ",
". . . . . . . . . . . . . . . . . . . . . . . . . . . . . . . . . . . . . . . * = - ; . . . . . . . . . . . . . . . . . ",
". . . . . . . . . . . . . . . . . . . . . . . . . . . . . . . . . . . . . . > , ' ) ; . . . . . . . . . . . . . . . . . ",
". . . . . . . . . . . . . . . . . . . . . . . . . . . . . . . . . . . . . ! ~ { ] ) ; . . . . . . . . . . . . . . . . . ",
". . . . . . . . . . . . . . . . . . . . . . . . . . . . . . . . . . . . . ^ / ' ] ) ; . . . . . . . . . . . . . . . . . ",
". . . . . . . . . . . . . . . . . . . . . . . . . . . . . . . . . . . . @ / ( ( ' ) ; . . . . . . . . . . . . . . . . . ",
". . . . . . . . . . . . . . . . . . . . . . . . . . . . . . . . . . . . _ : $ < [ ) ; . . . . . . . . . . . . . . . . . ",
". . . . . . . . . . . . . . . . . . . . . . . . . . . . . . . . . . . ^ } | 1 2 [ ) ; . . . . . . . . . . . . . . . . . ",
". . . . . . . . . . . . . . . . . . . . . . . . . . . . . . . . . . . 3 4 1 @ 5 [ ) ; . . . . . . . . . . . . . . . . . ",
". . . . . . . . . . . . . . . . . . . . . . . . . . . . . . . . . . 6 7 8 5 . 5 [ ) ; . . . . . . . . . . . . . . . . . ",
". . . . . . . . . . . . . . . . . . . . . . . . . . . . . . . . . . 9 0 a b . 5 [ ) ; . . . . . . . . . . . . . . . . . ",
". . . . . . . . . . . . . . . . . . . . . . . . . . . . . . . . . . c d e . . 5 [ ) ; . . . . . . . . . . . . . . . . . ",
". . . . . . . . . . . . . . . . . . . . . . . . . . . . . . . . . 7 f g h . . 5 [ ) ; . . . . . . . . . . . . . . . . . ",
". . . . . . . . . . . . . . . . . . . . . . . . . . . . . . . . . i j 3 ! . . 5 [ ) ; . . . . . . . . . . . . . . . . . ",
". . . . . . . . . . . . . . . . . . . . . . . . . . . . . . . ! k l m n . . . 5 [ ) ; . . . . . . . . . . . . . . . . . ",
". . . . . . . . . . . . . . . . . . . . . . . . . . . . . . . o p q r s . . . 5 [ ) ; . . . . . . . . . . . . . . . . . ",
". . . . . . . . . . . . . . . . . . . . . . . . . . . . . . . @ % t u s s s s v [ ) w s + . . . . . . . . . . . . . . . ",
". . . . . . . . . . . . . . . . . . . . . . . . . . . . . . x y z A B C C C C D E F G C H o . . . . . . . . . . . . . . ",
". . . . . . . . . . . . . . . . . . . . . . . . . . . . . . x I J J K K K K J L E F M K 1 o . . . . . . . . . . . . . . ",
". . . . . . . . . . . . . . . . . . . . . . . . . . . . . . . 6 N N N N N N N O [ ) } N s . . . . . . . . . . . . . . . ",
". . . . . . . . . . . . . . . . . . . . . . . . . . . . . . . . . . . . . . . 5 [ ) ; . . . . . . . . . . . . . . . . . ",
". . . . . . . . . . . . . . . . . . . . . . . . . . . . . . . . . . . . . . . 5 [ ) ; . . . . . . . . . . . . . . . . . ",
". . . . . . . . . . . . . . . . . . . . . . . . . . . . . . . . . . . . . ! + 2 [ ) P + ! . . . . . . . . . . . . . . . ",
". . . . . . . . . . . . . . . . . . . . . . . . . . . . . . . . . . . . s Q R S F T U R * + . . . . . . . . . . . . . . ",
". . . . . . . . . . . . . . . . . . . . . . . . . . . . . . . . . . . . 6 V : W X X W : Y o . . . . . . . . . . . . . . ",
". . . . . . . . . . . . . . . . . . . . . . . . . . . . . . . . . . . . . N Z Z Z Z Z Z @ . . . . . . . . . . . . . . . ",
". . . . . . . . . . . . . . . . . . . . . . . . . . . . . . . . . . . . . . . . . . . . . . . . . . . . . . . . . . . . ",
". . . . . . . . . . . . . . . . . . . . . . . . . . . . . . . . . . . . . . . . . . . . . . . . . . . . . . . . . . . . ",
". . . . . . . . . . . . . . . . . . . . . . . . . . . . . . . . . . . . . . . . . . . . . . . . . . . . . . . . . . . . ",
". . . . . . . . . . . . . . . . . . . . . . . . . . . . . . . . . . . . . . . . . . . . . . . . . . . . . . . . . . . . ",
". . . . . . . . . . . . . . . . . . . . . . . . . . . . . . . . . . `  .........+._ . . . . . . . . . . . . . . . . . . ",
". . . . . . . . . . . . . . . . . . . . . . . . . . . . . . . . . ` < @.#.$.$.%.z ; &.*.. . . . . . . . . . . . . . . . ",
". . . . . . . . . . . . . . . . . . . . . . . . . . . . . . . . _ =.$.-.=.&.&.;.>.,.'.).. . . . . . . . . . . . . . . . ",
". . . . . . . . . . . . . . . . . . . . . . . . . . . . . . . o !.| w ~.` . . {.i ].F V o . . . . . . . . . . . . . . . ",
". . . . . . . . . . . . . . . . . . . . . . . . . . . . . . . ! ~.^.s . . . . . /.I (._.H o . . . . . . . . . . . . . . ",
". . . . . . . . . . . . . . . . r Y Q n . . . . . . . . . . . . . . . . . . . . . b :.<.q 6 . . . . . . . . . . . . . . ",
". . . . . . . . . . . . . . . . [.{ }.|.. . . . . . . . . . . . . . . . . . . . . b :.<.q 6 . . . . . . . . . . . . . . ",
". . . . . . . . . . . . . . . . !.E 1.2.. . . . . . . . . . . . . . . . . . . . . b 3.= ( s . . . . . . . . . . . . . . ",
". . . . . . . . . . . . . . . . !.E 1.2.. . . . . . . . . . . . . . . . . . . . + 3 8 4.3 ! . . . . . . . . . . . . . . ",
". . . . . . . . . . . . . . . . !.E 1.2.. . . . . . . . . . . . . . . . ! + + + h 5.6.7.. . . . . . . . . . . . . . . . ",
". . . . . . . . . . . . . . . . !.E 1.2.. . . . . . . . . . . . . . . ` y ( ( ( 4.8.9.. . . . . . . . . . . . . . . . . ",
". . . . . . . . . . . . . . . . !.E 1.2.. . . . . . . . . . . . . . 0.[.(.a.a.a.b.c.2 d.. . . . . . . . . . . . . . . . ",
". . . . . . . . . . . e.f.g.g.c h.i.j.!.g.g.g.k.@ . . . . . . . . . l.m.n.o.o.o.-.[ [ p.h ! . . . . . . . . . . . . . . ",
". . . . . . . . . . . +.q.r.r.r.s.] t.u.r.r.r.4 v.. . . . . . . . . N h d.d.d.d.P w.E x.y.n + . . . . . . . . . . . . . ",
". . . . . . . . . . . z.u.F F F A.<.] i.F F F o.B.. . . . . . . . . . . . . . . _ C.D.E.F.G.0.. . . . . . . . . . . . . ",
". . . . . . . . . . . v.[.;.;.;.t t.- H.;.;.;.O I.. . . . . . . . . . . . . . . . N 5 J.<.K.{.. . . . . . . . . . . . . ",
". . . . . . . . . . . . . . . . !.E 1.2.. . . . . . . . . . . . . . . . . . . . . . @ L.<.K.{.. . . . . . . . . . . . . ",
". . . . . . . . . . . . . . . . !.E 1.2.. . . . . . . . . . . . . . . . . . . . . . @ L.<.K.{.. . . . . . . . . . . . . ",
". . . . . . . . . . . . . . . . !.E 1.2.. . . . . . . . . . . . . . . . . . . . . . @ L.<.K.{.. . . . . . . . . . . . . ",
". . . . . . . . . . . . . . . . !.E 1.2.. . . . . . . . . . . . . . . . . . . . . ! /.M.F M /.. . . . . . . . . . . . . ",
". . . . . . . . . . . . . . . . !.E 1.2.. . . . . . . . . . . . . . . . . . . . . ` y.1.8 e 6 . . . . . . . . . . . . . ",
". . . . . . . . . . . . . . . . !.F 1.2.. . . . . . . . . . . . . . . . . . . . N.p.r.O. .+ . . . . . . . . . . . . . . ",
". . . . . . . . . . . . . . . . +.P.| d.. . . . . . . . . . . . . . . . . . Q.i R.].S.P ! . . . . . . . . . . . . . . . ",
". . . . . . . . . . . . . . . . o N N + . . . . . . . . . . . ! 9.T.T.T.T.C./ L U.M V.o . . . . . . . . . . . . . . . . ",
". . . . . . . . . . . . . . . . . . . . . . . . . . . . . . . o l W.z z z z f X.k n @ . . . . . . . . . . . . . . . . . ",
". . . . . . . . . . . . . . . . . . . . . . . . . . . . . . . ! N.f.f.f.f.f.Y.. . . . . . . . . . . . . . . . . . . . . ",
". . . . . . . . . . . . . . . . . . . . . . . . . . . . . . . . . . . . . . . . . . . . . . . . . . . . . . . . . . . . ",
". . . . . . . . . . . . . . . . . . . . . . . . . . . . . . . . . . . . . . . . . . . . . . . . . . . . . . . . . . . . ",
". . . . . . . . . . . . . . . . . . . . . . . . . . . . . . . . . . . . . . . . . . . . . . . . . . . . . . . . . . . . ",
". . + 9.f.f.f.f.f.f.f.f.f.f.f.f.f.f.f.f.f.f.f.f.f.f.f.f.f.f.f.f.f.f.f.f.f.f.f.f.f.f.f.f.f.f.f.f.f.f.f.f.f.f.f.f.d.o . . ",
". . _ B r.r.r.r.r.r.r.r.r.r.r.r.r.r.r.r.r.r.r.r.r.r.r.r.r.r.r.r.r.r.r.r.r.r.r.r.r.r.r.r.r.r.r.r.r.r.r.r.r.r.r.r.Z.e.. . ",
". . ^ `.i.i.i.i.i.i.i.i.i.i.i.i.i.i.i.i.i.i.i.i.i.i.i.i.i.i.i.i.i.i.i.i.i.i.i.i.i.i.i.i.i.i.i.i.i.i.i.i.i.i.i.i.8 0.. . ",
". . s z. + + + + + + + + + + + + + + + + + + + + + + + + + + + + + + + + + + + + + + + + + + + + + + + + + + + +} @ . . ",
". . . . . . . . . . . . . . . . . . . . . . . . . . . . . . . . . . . . . . . . . . . . . . . . . . . . . . . . . . . . ",
". . . . . . . . . . . . . . . . . . . . . . . . . . . . . . . . . . . . . . . . . . . . . . . . . . . . . . . . . . . . "};
