/* XPM */
static char * grpn_xpm[] = {
"64 64 84 1",
" 	c None",
".	c #FFFFFF",
"+	c #F5F5F5",
"@	c #454545",
"#	c #000000",
"$	c #DCDCDC",
"%	c #A4A4A4",
"&	c #E4E4E4",
"*	c #0D0D0D",
"=	c #FEFEFE",
"-	c #7A7A7A",
";	c #5A5A5A",
">	c #CACACA",
",	c #D6D6D6",
"'	c #F7F7F7",
")	c #4D4D4D",
"!	c #959595",
"~	c #FDFDFD",
"{	c #AAAAAA",
"]	c #3B3B3B",
"^	c #F1F1F1",
"/	c #E8E8E8",
"(	c #161616",
"_	c #C2C2C2",
":	c #828282",
"<	c #757575",
"[	c #E1E1E1",
"}	c #2E2E2E",
"|	c #C4C4C4",
"1	c #323232",
"2	c #C5C5C5",
"3	c #E6E6E6",
"4	c #535353",
"5	c #353535",
"6	c #C6C6C6",
"7	c #DDDDDD",
"8	c #A3A3A3",
"9	c #666666",
"0	c #383838",
"a	c #7E7E7E",
"b	c #C8C8C8",
"c	c #FBFBFB",
"d	c #B4B4B4",
"e	c #FAFAFA",
"f	c #606060",
"g	c #848484",
"h	c #AFAFAF",
"i	c #474747",
"j	c #BABABA",
"k	c #F0F0F0",
"l	c #D0D0D0",
"m	c #C0C0C0",
"n	c #E2E2E2",
"o	c #929292",
"p	c #A6A6A6",
"q	c #E0E0E0",
"r	c #D2D2D2",
"s	c #ADADAD",
"t	c #4F4F4F",
"u	c #2A2A2A",
"v	c #B1B1B1",
"w	c #CCCCCC",
"x	c #878787",
"y	c #BBBBBB",
"z	c #494949",
"A	c #E7E7E7",
"B	c #EFEFEF",
"C	c #CDCDCD",
"D	c #F8F8F8",
"E	c #EBEBEB",
"F	c #7F7F7F",
"G	c #BCBCBC",
"H	c #EEEEEE",
"I	c #FCFCFC",
"J	c #3D3D3D",
"K	c #969696",
"L	c #6C6C6C",
"M	c #F3F3F3",
"N	c #5F5F5F",
"O	c #898989",
"P	c #CECECE",
"Q	c #222222",
"R	c #515151",
"S	c #8A8A8A",
"................................................................",
"................................................................",
"................................................................",
"................................................................",
"................................................................",
"................................................................",
"................................................................",
".............................................+@##$..............",
".............................................%###$..............",
"............................................&*###$..............",
"...........................................=-#;##$..............",
"...........................................>##,##$..............",
"..........................................')#!~##$..............",
"..........................................{#]^~##$..............",
"........................................./(#_.~##$..............",
".........................................:#<~.~##$..............",
"........................................[########}|.............",
"........................................$########12.............",
"..............................................~##$..............",
"............................................34###}|.............",
"............................................34###56.............",
"................................................................",
"................................................................",
"................................................................",
"................................................................",
"................................................................",
"................................................................",
"................................................................",
"................................................................",
"................................................................",
"................................................................",
"..........................................7890)abc..............",
".........................................d#######-e.............",
"...................'fg...................hijk~'l0#m.............",
"...................n##c.........................o#p.............",
"...................q##e.......................cr1#r.............",
"...................q##e.....................s(##02..............",
"...................q##e.....................p(##tr..............",
"...............:(########uv..................c/s*#w.............",
"...............x(########uv.....................y#z~............",
"...................q##e.........................A##B............",
"...................q##e.........................C#(D............",
"...................q##e.................EFGHIck6J#K.............",
"...................n##c.................C########LM.............",
"...................'NO...................P!N0QRS6e..............",
"................................................................",
"................................................................",
"................................................................",
"................................................................",
"................................................................",
"................................................................",
"................................................................",
"................................................................",
".......################################################.........",
".......################################################.........",
".......################################################.........",
"................................................................",
"................................................................",
"................................................................",
"................................................................",
"................................................................",
"................................................................",
"................................................................",
"................................................................"};
