#define nroot_width 25
#define nroot_height 25
static unsigned char nroot_bits[] = {
   0x00, 0x00, 0x00, 0x00, 0x00, 0x00, 0x00, 0x00, 0x00, 0x00, 0x00, 0x00,
   0x00, 0x00, 0x00, 0x00, 0x00, 0x00, 0x00, 0x00, 0x88, 0x00, 0x00, 0x00,
   0x88, 0x00, 0x00, 0x00, 0x50, 0x00, 0x00, 0x00, 0x50, 0x00, 0x00, 0x00,
   0x20, 0xf8, 0x7f, 0x00, 0x50, 0x08, 0x00, 0x00, 0x50, 0x08, 0x00, 0x00,
   0x88, 0x44, 0x10, 0x00, 0x88, 0x44, 0x10, 0x00, 0x00, 0x84, 0x08, 0x00,
   0x40, 0x02, 0x05, 0x00, 0x40, 0x02, 0x02, 0x00, 0x80, 0x02, 0x02, 0x00,
   0x80, 0x01, 0x02, 0x00, 0x00, 0x01, 0x02, 0x00, 0x00, 0x01, 0x02, 0x00,
   0x00, 0x00, 0x00, 0x00, 0x00, 0x00, 0x00, 0x00, 0x00, 0x00, 0x00, 0x00,
   0x00, 0x00, 0x00, 0x00};
