#define sqrt_width 25
#define sqrt_height 25
static unsigned char sqrt_bits[] = {
   0x00, 0x00, 0x00, 0x00, 0x00, 0x00, 0x00, 0x00, 0x00, 0x00, 0x00, 0x00,
   0x00, 0x00, 0x00, 0x00, 0x00, 0x00, 0x00, 0x00, 0x00, 0x00, 0x00, 0x00,
   0x00, 0xfe, 0x1f, 0x00, 0x00, 0x02, 0x00, 0x00, 0x00, 0x02, 0x00, 0x00,
   0x00, 0x21, 0x02, 0x00, 0x00, 0x21, 0x02, 0x00, 0x00, 0x41, 0x01, 0x00,
   0x90, 0x40, 0x01, 0x00, 0x90, 0x80, 0x00, 0x00, 0xa0, 0x40, 0x01, 0x00,
   0x60, 0x40, 0x01, 0x00, 0x40, 0x20, 0x02, 0x00, 0x40, 0x20, 0x02, 0x00,
   0x00, 0x00, 0x00, 0x00, 0x00, 0x00, 0x00, 0x00, 0x00, 0x00, 0x00, 0x00,
   0x00, 0x00, 0x00, 0x00, 0x00, 0x00, 0x00, 0x00, 0x00, 0x00, 0x00, 0x00,
   0x00, 0x00, 0x00, 0x00};
